<svg xmlns="http://www.w3.org/2000/svg" width="131.809" height="24.357" fill="none" overflow="visible" viewBox="0 0 131.809 24.357"><path fill="#777" d="M80.798 18.388V1.957h2.111l5.714 10.004h.092L94.43 1.957h2.111v16.43h-2.11V8.635l.092-2.754h-.093l-5.139 9.018h-1.239l-5.14-9.019h-.092l.092 2.754v9.752zm21.914.344q-1.789 0-2.993-1.033-1.205-1.033-1.205-2.73c0-1.23.473-2.184 1.422-2.88q1.425-1.045 3.504-1.045 1.859 0 3.052.689v-.322q0-1.239-.848-1.984-.849-.746-2.089-.746-.917.001-1.663.43a2.23 2.23 0 0 0-1.02 1.193l-1.928-.825c.26-.673.773-1.291 1.537-1.87s1.774-.861 3.029-.861q2.157 0 3.579 1.262t1.423 3.558v6.798h-2.019v-1.561h-.092c-.842 1.29-2.074 1.927-3.689 1.927m.345-1.927q1.306 0 2.374-.976c.712-.649 1.068-1.413 1.068-2.305q-.895-.735-2.685-.734-1.538 0-2.318.665-.78.667-.78 1.56 0 .826.711 1.309a2.83 2.83 0 0 0 1.629.482zm13.365 1.927q-1.285-.001-2.305-.551t-1.525-1.377h-.092l.092 1.56v4.957h-2.111V7.12h2.02v1.56h.093q.504-.825 1.524-1.377 1.021-.55 2.305-.55 2.18 0 3.764 1.72 1.583 1.722 1.583 4.269t-1.583 4.268q-1.583 1.72-3.764 1.721zm-.344-1.927c.979 0 1.82-.372 2.524-1.107.705-.735 1.056-1.725 1.056-2.949s-.352-2.213-1.056-2.949q-1.056-1.105-2.524-1.106-1.492 0-2.536 1.101-1.044 1.103-1.043 2.96 0 1.859 1.043 2.96 1.043 1.102 2.536 1.102zm11.302 1.927q-1.882 0-3.109-.918a5.47 5.47 0 0 1-1.802-2.295l1.882-.78c.596 1.413 1.614 2.11 3.052 2.11q.987-.001 1.618-.43c.421-.286.632-.674.632-1.148q0-1.102-1.538-1.491l-2.272-.55q-1.079-.275-2.042-1.044t-.964-2.076q0-1.49 1.319-2.422 1.32-.93 3.132-.93 1.49 0 2.662.677a3.8 3.8 0 0 1 1.675 1.939l-1.836.757q-.618-1.491-2.569-1.491-.942 0-1.583.39-.643.39-.643 1.055c0 .643.492 1.079 1.492 1.309l2.225.527q1.582.368 2.34 1.262.758.895.758 2.02c0 1.01-.414 1.844-1.24 2.524s-1.889 1.01-3.196 1.01zM18.24 8.592H9.58v2.57h6.148c-.303 3.602-3.301 5.138-6.13 5.138a6.75 6.75 0 0 1-6.78-6.84c0-3.89 3.01-6.885 6.786-6.885 2.914 0 4.629 1.857 4.629 1.857l1.8-1.862S13.722 0 9.511 0C4.149 0 0 4.526 0 9.415c0 4.79 3.904 9.463 9.649 9.463 5.053 0 8.754-3.462 8.754-8.582 0-1.08-.157-1.704-.157-1.704zm7.109-1.828c-3.553 0-6.1 2.777-6.1 6.017 0 3.288 2.47 6.117 6.148 6.117 3.324 0 6.046-2.54 6.046-6.047 0-4.018-3.168-6.088-6.088-6.088zm.035 2.383c1.747 0 3.403 1.413 3.403 3.689 0 2.228-1.65 3.682-3.412 3.682-1.936 0-3.464-1.551-3.464-3.699 0-2.101 1.51-3.672 3.473-3.672M38.55 6.764c-3.552 0-6.099 2.777-6.099 6.017 0 3.288 2.47 6.117 6.148 6.117 3.324 0 6.046-2.54 6.046-6.047 0-4.018-3.167-6.088-6.088-6.088zm.036 2.383c1.748 0 3.403 1.413 3.403 3.689 0 2.228-1.65 3.682-3.412 3.682-1.936 0-3.464-1.551-3.464-3.699 0-2.101 1.51-3.672 3.473-3.672M51.55 6.764c-3.261 0-5.825 2.857-5.825 6.062 0 3.652 2.971 6.074 5.768 6.074 1.73 0 2.648-.687 3.328-1.475v1.196c0 2.093-1.271 3.347-3.197 3.347-1.853 0-2.782-1.378-3.105-2.16l-2.332.975c.828 1.749 2.492 3.573 5.458 3.573 3.242 0 5.714-2.042 5.714-6.331v-10.9h-2.543v1.028c-.782-.842-1.852-1.392-3.27-1.392zm.236 2.379c1.6 0 3.241 1.365 3.241 3.696 0 2.37-1.638 3.676-3.276 3.676-1.739 0-3.357-1.411-3.357-3.654 0-2.336 1.68-3.718 3.392-3.718m16.926-2.38c-3.076 0-5.66 2.448-5.66 6.06 0 3.822 2.88 6.089 5.955 6.089 2.568 0 4.144-1.405 5.083-2.663L72 14.853c-.544.845-1.454 1.671-2.972 1.671-1.706 0-2.49-.934-2.976-1.84l8.136-3.38-.422-.984c-.787-1.937-2.62-3.555-5.041-3.555zm.106 2.334c1.11 0 1.906.59 2.246 1.296l-5.433 2.271c-.234-1.758 1.43-3.567 3.187-3.567m-9.651 9.453h2.671V.661h-2.671z"/></svg>